<?xml version="1.0"?>
<svg xmlns="http://www.w3.org/2000/svg" xmlns:xlink="http://www.w3.org/1999/xlink" xmlns:svgjs="http://svgjs.com/svgjs" version="1.1" width="512" height="512" x="0" y="0" viewBox="0 0 497 497" style="enable-background:new 0 0 512 512" xml:space="preserve" class=""><g><g xmlns="http://www.w3.org/2000/svg"><path d="m412.5 412.5h-30s84.39 80.152 84.5 84.5h22.132c4.442 0 7.898-3.839 7.469-8.26-4.151-42.792-40.22-76.24-84.101-76.24z" fill="#fd5266" data-original="#e0343f" style="" class=""/><path d="m382.5 412.5h-298c-43.881 0-79.95 33.448-84.101 76.24-.429 4.421 3.027 8.26 7.469 8.26h459.132c0-46.668-37.832-84.5-84.5-84.5z" fill="#fd5266" data-original="#ff4040" style="" class=""/><circle cx="248.5" cy="30" fill="#f7f4f6" r="30" data-original="#f7f4f6" style="" class=""/><path d="m274.631 70.055c-7.165-6.472-16.476-10.055-26.131-10.055v42.555h62.11z" fill="#fd5266" data-original="#e0343f" style="" class=""/><path d="m262.009 70.055c-3.704-6.472-8.518-10.055-13.509-10.055-9.655 0-18.966 3.583-26.131 10.055l-35.979 32.5h94.22z" fill="#fd5266" data-original="#ff4040" style="" class=""/><path d="m375.947 128.956c-38.678-22.307-82.123-33.956-127.447-33.956l127.5 167.5c16.569 0 30-13.432 30-30v-51.542c0-21.459-11.464-41.282-30.053-52.002z" fill="#ebe1e8" data-original="#ebe1e8" style=""/><path d="m351.671 128.956c-31.311-22.307-66.48-33.956-103.171-33.956-45.324 0-88.768 11.649-127.447 33.955-18.589 10.721-30.053 30.543-30.053 52.003v51.542c0 16.568 13.432 30 30 30h255v-81.542c0-21.459-9.28-41.282-24.329-52.002z" fill="#f7f4f6" data-original="#f7f4f6" style="" class=""/><path d="m376 262.5c16.57 0 30 13.43 30 30s-13.43 30-30 30l-15-30z" fill="#ffdac7" data-original="#ffdac7" style="" class=""/><path d="m121 262.5 15 30-15 30c-16.57 0-30-13.43-30-30s13.43-30 30-30z" fill="#ffdac7" data-original="#ffdac7" style="" class=""/><path d="m346 262.5-97.5 234.5c70.12 0 127.5-57.38 127.5-127.5v-107z" fill="#ebe1e8" data-original="#ebe1e8" style=""/><path d="m346 369.5v-107h-225v107c0 70.12 57.38 127.5 127.5 127.5 53.621 0 97.5-57.38 97.5-127.5z" fill="#f7f4f6" data-original="#f7f4f6" style="" class=""/><path d="m248.5 363.694c-9.104 0-18.206-2.407-26.326-7.224-3.563-2.113-4.738-6.714-2.625-10.277 2.113-3.562 6.714-4.738 10.277-2.625 11.518 6.832 25.83 6.832 37.348 0 3.564-2.114 8.164-.937 10.277 2.625 2.113 3.563.938 8.164-2.625 10.277-8.118 4.816-17.224 7.224-26.326 7.224z" fill="#ebe1e8" data-original="#ebe1e8" style=""/><path d="m364.61 194.98c-10.19-7.931-21.204-14.853-32.891-20.613l14.281 118.133c0-16.5 13.5-30 30-30v-15c0-18.69-4.08-36.48-11.39-52.52z" fill="#ffc1b0" data-original="#ffc1b0" style=""/><path d="m345.868 232.5c0-21.189-5.176-41.112-14.149-58.133-25.109-12.373-53.331-19.367-83.219-19.367-43.8 0-84.03 15.01-116.11 39.98-7.31 16.04-11.39 33.83-11.39 52.52v15c16.5 0 30 13.5 30 30v35.42c0 6.1 2.48 11.62 6.48 15.62s9.52 6.48 15.62 6.48c5.87 0 11.49-2.33 15.63-6.47l14.74-14.74c5.63-5.63 13.26-8.79 21.22-8.79h47.62c7.96 0 15.59 3.16 21.22 8.79l14.74 14.74c2.07 2.07 4.51 3.69 7.17 4.79 2.65 1.1 5.52 1.68 8.46 1.68 11.53 0 21.01-8.85 22.01-20.12l.09-37.4v-45z" fill="#ffdac7" data-original="#ffdac7" style="" class=""/><path d="m315.868 202.5h-30l30 30h30c0-16.569-13.432-30-30-30z" fill="#f7f4f6" data-original="#f7f4f6" style="" class=""/><path d="m285.868 202.5h-22.368c0 16.568 13.431 30 30 30h22.368c0-16.569-13.432-30-30-30z" fill="#ffffff" data-original="#ffffff" style="" class=""/><circle cx="196" cy="277.5" fill="#524051" r="15" data-original="#524051" style=""/><circle cx="301" cy="277.5" fill="#524051" r="15" data-original="#524051" style=""/><path d="m181.132 202.5h52.368c0 16.568-13.431 30-30 30h-52.368c0-16.569 13.431-30 30-30z" fill="#ffffff" data-original="#ffffff" style="" class=""/></g></g></svg>
